<svg width="88" height="96" viewBox="0 0 88 96" fill="none" xmlns="http://www.w3.org/2000/svg">
<path d="M88 22V80C88 88.8 80.8 96 72 96H42.8C38.48 96 34.4 94.28 31.4 91.24L0 59.32C0 59.32 5.04 54.4 5.2 54.32C6.08 53.56 7.16 53.16 8.36 53.16C9.24 53.16 10.04 53.4 10.76 53.8C10.92 53.84 28 63.64 28 63.64V16C28 12.68 30.68 10 34 10C37.32 10 40 12.68 40 16V44H44V6C44 2.68 46.68 0 50 0C53.32 0 56 2.68 56 6V44H60V10C60 6.68 62.68 4 66 4C69.32 4 72 6.68 72 10V44H76V22C76 18.68 78.68 16 82 16C85.32 16 88 18.68 88 22Z" fill="white"/>
</svg>
